<svg xmlns="http://www.w3.org/2000/svg" viewBox="0 0 48 48" width="48" height="48"><path d="M.5 25.6c-.7-1.8-1-6.3 1.3-9.1 2.6-3.3 5.9-4.8 10-4.7h9.4c.8 0 1.2-.2 1.2-1.1 0-.6-.2-.9-.9-.9L12 10c-.2 0-.5-.3-.7-.5.3-.2.6-.6.9-.6h7.3c2.3 0 3-.8 2.9-3.1V1.1c0-.3.4-.7.6-1 .2.3.5.7.5 1V8l.4.7.6-.6.5-.7.5.7c.2.6.5.8 1.1.7h3.8c.8 0 1.7.3 2.4.7.3.1.6.8.5 1.1 0 .3-.5.8-.8.8-.3 0-.8-.4-1-.7-.4-.7-.9-.9-1.6-.9h-3.3c-.4 0-.9.4-1.1.7-.2.6.1 1 .8 1.2.6.2 1.2.4 1.7.8.3.2.6.8.5 1.1 0 .4-.6.8-.9.9-.3 0-.8-.3-1.1-.6-.3-.2-.4-.6-.6-1-.6 1.4-.1 2.7 1.1 3.1a2 2 0 0 0 1-.3c.9-.7 1.7-1.7 2.7-2.3 5.3-3.5 12.4-2 15.8 3.3 2.7 4.2 1.9 8.4-1.4 12a11.2 11.2 0 0 1-8.5 3.4H27c-1 0-1.4.2-1.3 1.3v12.9c0 1.6-.5 1.9-1.5 1.6.1-.9.3-1.7.3-2.6v-2.6c0-1 0-1.9-1.3-2.2-.3 0-.7-.8-.7-1.2v-6.2c0-.7-.2-.9-.8-1.1-.6-.2-1.3-.4-1.8-.8-.3-.2-.6-.9-.4-1.1a2 2 0 0 1 1.1-.9c.3 0 .7.4 1 .7l.6.9.3-.2v-6.7h-.2l-.6 1.3a10.7 10.7 0 0 1-9.3 7c-5.1.5-9.2-1.5-11.5-6.1m17.9-9.8-.3-.6c-.6-.7-1.2-.4-1.8-.1-.7.3-1.2 0-1.5-.6-.3-.7.2-1 .8-1.3 1.1-.5 2 0 2.8.7.6.4.9 1.1 1.5 1.5a3 3 0 0 0 1.9.3c.2 0 .3-.8.4-1.3v-1.1c0-.8-.3-1.1-1.1-1.1h-9.8c-2 0-3.8.4-5.4 1.4-5 2.7-7.4 9.8-1.6 14.8 3.3 2.8 9.2 3.2 13.1 0a8.8 8.8 0 0 0 2.7-10.6c-.3-.6-.6-1.3-1.5-1.3-1 0-1.9 0-2.4 1.1-.1.3-.7.7-1 .7-.3 0-.8-.5-.8-.8 0-.4.2-.9.5-1.1.4-.3.9-.4 1.4-.5l2.2-.2Zm10.6-.3h6.4c.3 0 .6.3.9.5-.3.2-.5.6-.8.6h-6.5c-.5 0-1.3.4-1.4.8-1.3 2.9-1.5 6.8 1.2 9.7.7.8 1.3 1.5 2.5.8.3-.2 1.1.2 1.4.6.4.6 0 1.1-.6 1.2-.5.2-1.2.3-1.6 0a7.9 7.9 0 0 1-4.1-4.3l-.7-1.7c-.3.3-.4.5-.4.7v5.4c0 .7.5.7 1 .7h10.4c2 0 3.8-.6 5.5-1.6a8.9 8.9 0 0 0 .6-14.8c-4.4-3-9-2.6-13 .5-.3.2-.5.6-.8 1Zm-5.8 8.1v6.1c0 .2.3.5.5.7l.4-.7v-12c0-.3-.3-.7-.5-1-.1.3-.4.6-.4 1v6Zm.4 15.7h.3l.2-.8v-6.2c0-.2-.3-.4-.5-.5-.1.2-.4.4-.4.6v6c0 .3.2.6.4.9Zm-.4-25.6v1.2c0 .2.3.4.4.6l.5-.6v-1.2l-.5-1.4-.4 1.4Zm-1.2 6.2v-2.5c0-.3-.2-.6-.4-.7l-.6.1c-.1.2 0 .5 0 .8l1 2.3Zm3.3-1.2h.3c.2-.4.5-.8.6-1.3l-.3-.8-.8.6v1.5Zm-2.3-8.6c0 .5.4.6.7.9.2-.3.5-.5.5-.8 0-.3-.5-.8-.5-.8s-.6.3-.7.7Z" style="fill:var(--grey4)"/></svg>